<svg version="1.1" xmlns="http://www.w3.org/2000/svg" xmlns:xlink="http://www.w3.org/1999/xlink" x="0px" y="0px"
    viewBox="0 0 800 300" style="enable-background:new 0 0 800 300;" xml:space="preserve">
    <style type="text/css">
        .st0 {
            fill: #757575;
        }

        .st1 {
            fill: none;
            stroke: #B2B2B2;
            stroke-width: 4;
            stroke-linecap: round;
            stroke-linejoin: round;
            stroke-miterlimit: 10;
        }

        .st2 {
            display: none;
        }

        .st3 {
            display: inline;
            fill: none;
            stroke: #757575;
            stroke-miterlimit: 10;
        }

        .st4 {
            display: inline;
            fill: #757575;
        }

        .st5 {
            fill: #FFFFFF;
            stroke: #023550;
            stroke-width: 5;
            stroke-miterlimit: 10;
        }

        .st6 {
            fill: none;
            stroke: #023550;
            stroke-width: 5;
            stroke-miterlimit: 10;
        }

        .st7 {
            fill: #4AD9D9;
            stroke: #023550;
            stroke-width: 5;
            stroke-miterlimit: 10;
        }

        .st8 {
            fill: #1ABBBC;
            stroke: #023550;
            stroke-width: 5;
            stroke-linecap: round;
            stroke-miterlimit: 10;
        }

        .st9 {
            fill: #023550;
        }

        .st10 {
            fill: #FFFFFF;
            stroke: #023550;
            stroke-width: 5;
            stroke-linejoin: round;
            stroke-miterlimit: 10;
        }

        .st11 {
            fill: #FFFFFF;
        }

        .st12 {
            fill: none;
            stroke: #023550;
            stroke-width: 5;
            stroke-linecap: round;
            stroke-linejoin: round;
        }

        .st13 {
            fill: #FFFFFF;
            stroke: #023550;
            stroke-width: 5;
            stroke-linecap: round;
            stroke-linejoin: round;
            stroke-miterlimit: 10;
        }

        .st14 {
            fill: none;
            stroke: #023550;
            stroke-width: 5;
            stroke-linecap: round;
            stroke-linejoin: round;
            stroke-miterlimit: 10;
        }

        .st15 {
            fill: #4AD9D9;
            stroke: #023550;
            stroke-width: 5;
            stroke-linecap: round;
            stroke-linejoin: round;
            stroke-miterlimit: 10;
        }
    </style>
    <g id="Layer_1"> </g>
    <g id="grids_and_guides" class="st2">
        <rect x="20" y="20" class="st3" width="760" height="260"></rect>
    </g>
    <g id="diagrams">
        <g>
            <circle class="st7" cx="615.465" cy="152.315" r="48.616"></circle>
            <g>
                <g>
                    <rect x="181.069" y="119.964" class="st10" width="80.208" height="57.963"></rect>
                    <polygon class="st10"
                        points="273.723,193.927 168.623,193.927 181.069,178.522 261.277,178.522         "></polygon>
                    <rect x="190.749" y="129.653" class="st9" width="60.848" height="38.584"></rect>
                    <g>
                        <path class="st11"
                            d="M195.534,152.684h2.739v-5.369c0-0.487,0.018-0.99,0.018-0.99h-0.037c0,0-0.162,0.359-0.504,0.684 l-0.775,0.703l-1.82-1.945l3.477-3.261h2.72v10.179h2.756v2.702h-8.575V152.684z">
                        </path>
                        <path class="st11"
                            d="M205.448,148.918c0-3.694,1.189-6.629,4.846-6.629s4.846,2.935,4.846,6.629s-1.189,6.683-4.846,6.683 S205.448,152.612,205.448,148.918z M211.897,148.918c0-2.09-0.36-3.746-1.603-3.746c-1.243,0-1.603,1.656-1.603,3.746 c0,2.108,0.36,3.801,1.603,3.801C211.537,152.719,211.897,151.026,211.897,148.918z">
                        </path>
                        <path class="st11"
                            d="M217.074,152.684h2.739v-5.369c0-0.487,0.018-0.99,0.018-0.99h-0.037c0,0-0.162,0.359-0.504,0.684 l-0.775,0.703l-1.82-1.945l3.477-3.261h2.72v10.179h2.756v2.702h-8.575V152.684z">
                        </path>
                        <path class="st11"
                            d="M226.989,148.918c0-3.694,1.189-6.629,4.846-6.629s4.846,2.935,4.846,6.629s-1.189,6.683-4.846,6.683 S226.989,152.612,226.989,148.918z M233.438,148.918c0-2.09-0.36-3.746-1.603-3.746c-1.243,0-1.603,1.656-1.603,3.746 c0,2.108,0.36,3.801,1.603,3.801C233.078,152.719,233.438,151.026,233.438,148.918z">
                        </path>
                        <path class="st11"
                            d="M238.614,152.684h2.739v-5.369c0-0.487,0.018-0.99,0.018-0.99h-0.037c0,0-0.162,0.359-0.504,0.684 l-0.775,0.703l-1.82-1.945l3.477-3.261h2.72v10.179h2.756v2.702h-8.575V152.684z">
                        </path>
                    </g>
                </g>
                <g>
                    <g>
                        <circle class="st5" cx="168.628" cy="119.617" r="32.698"></circle>
                        <path class="st7"
                            d="M201.326,181.496c0,11.303-2.065,21.764-5.618,30.433c-0.292,0.712-0.903,1.152-1.563,1.152h-51.029 c-0.659,0-1.27-0.439-1.562-1.149c-3.569-8.67-5.635-19.133-5.635-30.437c0-8.285,1.105-16.111,3.108-23.12 c0.407-1.425,1.88-1.906,2.805-0.89c5.885,6.464,13.372,10.836,21.666,12.117c0.652,0.101,1.204,0.618,1.422,1.364l2.069,7.107 c0.542,1.861,2.729,1.862,3.272,0.002l2.065-7.071c0.217-0.744,0.769-1.261,1.418-1.362 c8.296-1.296,15.786-5.655,21.697-12.118c0.927-1.014,2.4-0.528,2.803,0.898C200.222,165.419,201.326,173.252,201.326,181.496z ">
                        </path>
                    </g>
                </g>
            </g>
            <g>
                <g>
                    <line class="st12" x1="273.723" y1="152.719" x2="531.258" y2="152.719"></line>
                    <g>
                        <polygon class="st9"
                            points="550.674,152.719 523.314,163.899 529.806,152.719 523.314,141.542          ">
                        </polygon>
                    </g>
                </g>
            </g>
            <path class="st5"
                d="M444.905,131.488h-92.126c-11.046,0-20,8.954-20,20v2.461c0,11.046,8.954,20,20,20h92.126 c11.046,0,20-8.954,20-20v-2.461C464.905,140.442,455.951,131.488,444.905,131.488z">
            </path>
            <g>
                <path class="st9"
                    d="M369.417,150.037c-0.521-0.559-0.763-0.781-1.08-1.023c-0.633-0.466-1.433-0.708-2.271-0.708 c-2.457,0-4.319,1.918-4.319,4.412c0,2.457,1.899,4.394,4.3,4.394c0.894,0,1.694-0.279,2.401-0.801 c0.279-0.204,0.335-0.261,1.024-0.949l1.563,1.489c-1.675,1.713-3.034,2.346-4.97,2.346c-3.63,0-6.553-2.886-6.553-6.479 c0-3.611,2.923-6.497,6.571-6.497c1.862,0,3.332,0.689,4.896,2.309L369.417,150.037z">
                </path>
                <path class="st9"
                    d="M379.977,151.601V146.5h2.197v12.417h-2.197v-5.269h-5.12v5.269h-2.196V146.5h2.196v5.101H379.977z">
                </path>
                <path class="st9"
                    d="M386.979,148.529v3.071h4.208v2.048h-4.208v3.221h4.896v2.048h-7.092V146.5h6.925v2.029H386.979z">
                </path>
                <path class="st9"
                    d="M402.917,150.037c-0.521-0.559-0.764-0.781-1.08-1.023c-0.633-0.466-1.433-0.708-2.271-0.708 c-2.457,0-4.319,1.918-4.319,4.412c0,2.457,1.899,4.394,4.3,4.394c0.894,0,1.694-0.279,2.402-0.801 c0.279-0.204,0.335-0.261,1.023-0.949l1.563,1.489c-1.675,1.713-3.034,2.346-4.97,2.346c-3.63,0-6.553-2.886-6.553-6.479 c0-3.611,2.923-6.497,6.571-6.497c1.862,0,3.333,0.689,4.896,2.309L402.917,150.037z">
                </path>
                <path class="st9"
                    d="M415.878,158.917h-2.606l-3.686-5.548l-1.229,1.322v4.226h-2.197V146.5h2.197v5.213l4.821-5.213h2.755 l-4.858,5.269L415.878,158.917z">
                </path>
                <path class="st9" d="M420.312,153.667v1.937h-4.133v-1.937H420.312z"></path>
                <path class="st9" d="M424.298,158.917h-2.197V146.5h2.197V158.917z"></path>
                <path class="st9"
                    d="M426.904,146.5h1.899l6.459,8.638V146.5h2.197v12.417h-1.899l-6.459-8.638v8.638h-2.197V146.5z">
                </path>
            </g>
        </g>
    </g>
</svg>