<svg version="1.1" xmlns="http://www.w3.org/2000/svg" xmlns:xlink="http://www.w3.org/1999/xlink" x="0px" y="0px"
    viewBox="0 0 800 300" style="enable-background:new 0 0 800 300;" xml:space="preserve">
    <style type="text/css">
        .st0 {
            fill: #757575;
        }

        .st1 {
            fill: none;
            stroke: #B2B2B2;
            stroke-width: 4;
            stroke-linecap: round;
            stroke-linejoin: round;
            stroke-miterlimit: 10;
        }

        .st2 {
            display: none;
        }

        .st3 {
            display: inline;
            fill: none;
            stroke: #757575;
            stroke-miterlimit: 10;
        }

        .st4 {
            display: inline;
            fill: #757575;
        }

        .st5 {
            fill: #FFFFFF;
            stroke: #023550;
            stroke-width: 5;
            stroke-miterlimit: 10;
        }

        .st6 {
            fill: none;
            stroke: #023550;
            stroke-width: 5;
            stroke-miterlimit: 10;
        }

        .st7 {
            fill: #4AD9D9;
            stroke: #023550;
            stroke-width: 5;
            stroke-miterlimit: 10;
        }

        .st8 {
            fill: #1ABBBC;
            stroke: #023550;
            stroke-width: 5;
            stroke-linecap: round;
            stroke-miterlimit: 10;
        }

        .st9 {
            fill: #023550;
        }

        .st10 {
            fill: #FFFFFF;
            stroke: #023550;
            stroke-width: 5;
            stroke-linejoin: round;
            stroke-miterlimit: 10;
        }

        .st11 {
            fill: #FFFFFF;
        }

        .st12 {
            fill: none;
            stroke: #023550;
            stroke-width: 5;
            stroke-linecap: round;
            stroke-linejoin: round;
        }

        .st13 {
            fill: #FFFFFF;
            stroke: #023550;
            stroke-width: 5;
            stroke-linecap: round;
            stroke-linejoin: round;
            stroke-miterlimit: 10;
        }

        .st14 {
            fill: none;
            stroke: #023550;
            stroke-width: 5;
            stroke-linecap: round;
            stroke-linejoin: round;
            stroke-miterlimit: 10;
        }

        .st15 {
            fill: #4AD9D9;
            stroke: #023550;
            stroke-width: 5;
            stroke-linecap: round;
            stroke-linejoin: round;
            stroke-miterlimit: 10;
        }
    </style>
    <g id="Layer_1"> </g>
    <g id="grids_and_guides" class="st2">
        <rect x="20" y="20" class="st3" width="760" height="260"></rect>
    </g>
    <g id="diagrams">
        <g>
            <g>
                <g>
                    <path class="st5"
                        d="M423.577,109.69v80.61c0.255,7.357,17.754,13.275,39.305,13.275c21.54,0,39.05-5.918,39.305-13.275v-80.61 c-0.275-7.347-17.775-13.265-39.305-13.265C441.341,96.425,423.852,102.343,423.577,109.69z">
                    </path>
                    <path class="st6"
                        d="M423.572,109.86c0,7.42,17.597,13.435,39.305,13.435c21.707,0,39.305-6.015,39.305-13.435">
                    </path>
                    <path class="st6"
                        d="M423.572,136.62c0,7.42,17.597,13.435,39.305,13.435c21.707,0,39.305-6.015,39.305-13.435">
                    </path>
                    <path class="st6"
                        d="M423.572,163.38c0,7.42,17.597,13.435,39.305,13.435c21.707,0,39.305-6.015,39.305-13.435">
                    </path>
                </g>
            </g>
            <circle class="st7" cx="309.28" cy="150" r="44.993"></circle>
            <g>
                <line class="st8" x1="402.368" y1="143.502" x2="375.476" y2="143.502"></line>
                <line class="st8" x1="402.368" y1="156.498" x2="375.476" y2="156.498"></line>
            </g>
            <g>
                <g>
                    <path class="st9"
                        d="M538.354,125.15c-1.215-1.914-1.914-2.431-3.28-2.431c-1.641,0-2.826,1.063-2.826,2.553 c0,0.972,0.79,1.731,2.37,2.339l1.914,0.729c3.402,1.306,4.982,3.099,4.982,5.741c0,3.646-3.008,6.472-6.896,6.472 c-2.704,0-5.043-1.428-6.137-3.828c-0.273-0.607-0.273-0.607-0.699-2.309l3.494-0.912c0.425,1.61,0.425,1.61,0.638,2.036 c0.577,1.062,1.58,1.64,2.795,1.64c1.763,0,3.16-1.366,3.16-3.068c0-1.185-0.76-1.883-2.917-2.733l-1.822-0.699 c-2.978-1.154-4.467-2.947-4.467-5.437c0-3.343,2.765-5.864,6.441-5.864c1.883,0,3.463,0.639,4.709,1.914 c0.516,0.517,0.698,0.76,1.488,2.036L538.354,125.15z">
                    </path>
                    <path class="st9"
                        d="M557.764,133.353c0,4.04-3.129,7.2-7.139,7.2c-4.071,0-7.17-3.16-7.17-7.262 c0-4.01,3.159-7.108,7.261-7.108C554.635,126.183,557.764,129.372,557.764,133.353z M546.948,133.353 c0,2.399,1.489,4.07,3.677,4.07c2.156,0,3.646-1.671,3.646-4.07c0-2.431-1.489-4.041-3.737-4.041 C548.438,129.312,546.948,130.983,546.948,133.353z">
                    </path>
                    <path class="st9"
                        d="M568.91,139.398c-1.062,0.852-1.883,1.155-3.129,1.155c-1.549,0-3.129-0.669-4.162-1.793 c-1.063-1.124-1.488-2.582-1.488-4.891v-7.23h3.463v7.018c0,1.671,0.183,2.491,0.669,3.038c0.425,0.485,1.032,0.729,1.792,0.729 c0.942,0,1.762-0.334,2.218-0.941c0.456-0.547,0.638-1.428,0.638-3.129v-6.714h3.464v13.458h-3.464V139.398z">
                    </path>
                    <path class="st9"
                        d="M579.054,127.52c0.851-0.729,1.55-0.973,2.644-0.973c0.334,0,0.76,0.03,1.275,0.092v3.099 c-0.547-0.03-0.941-0.062-1.245-0.062c-2.005,0-2.674,0.973-2.674,3.95v6.471h-3.463v-13.458h3.463V127.52z">
                    </path>
                    <path class="st9"
                        d="M594.516,131.226c-1.519-1.61-2.097-1.914-3.433-1.914c-2.218,0-3.707,1.61-3.707,4.041 c0,2.461,1.489,4.07,3.737,4.07c1.337,0,2.218-0.516,3.493-2.005l2.31,2.218c-1.884,2.097-3.555,2.917-5.833,2.917 c-4.071,0-7.2-3.13-7.2-7.2c0-4.041,3.129-7.17,7.2-7.17c2.218,0,3.858,0.79,5.741,2.795L594.516,131.226z">
                    </path>
                    <path class="st9"
                        d="M601.197,134.659c0.485,1.793,1.671,2.765,3.372,2.765c1.124,0,2.156-0.395,2.855-1.124 c0.152-0.121,0.364-0.455,0.698-0.941l2.917,1.215c-0.851,1.459-1.124,1.763-1.975,2.461c-1.246,0.973-2.825,1.52-4.496,1.52 c-3.919,0-6.927-3.13-6.927-7.2c0-4.011,3.008-7.17,6.805-7.17c2.947,0,5.438,1.914,6.319,4.83 c0.243,0.851,0.364,1.641,0.364,2.674c0,0.213,0,0.456-0.03,0.972H601.197z M607.668,132.076 c-0.607-1.914-1.641-2.825-3.221-2.825c-1.641,0-2.795,1.033-3.25,2.825H607.668z">
                    </path>
                    <path class="st9"
                        d="M543.246,176.546h-4.071l-4.283-7.687c-0.577,0.03-0.82,0.03-1.246,0.03h-1.062v7.656h-3.585v-20.264h4.647 c2.704,0,4.314,0.456,5.651,1.58c1.367,1.154,2.157,2.916,2.157,4.8c0,2.248-1.155,4.253-3.038,5.286L543.246,176.546z M533.889,165.64c2.765,0,4.041-0.973,4.041-3.038c0-0.911-0.364-1.763-0.942-2.248c-0.638-0.577-1.549-0.79-3.099-0.79h-1.306 v6.076H533.889z">
                    </path>
                    <path class="st9"
                        d="M547.679,171.108c0.485,1.793,1.671,2.765,3.372,2.765c1.124,0,2.156-0.395,2.855-1.124 c0.151-0.121,0.364-0.455,0.698-0.941l2.917,1.215c-0.851,1.459-1.124,1.763-1.975,2.461c-1.246,0.973-2.825,1.52-4.496,1.52 c-3.919,0-6.927-3.13-6.927-7.2c0-4.011,3.008-7.17,6.805-7.17c2.947,0,5.438,1.914,6.319,4.83 c0.243,0.851,0.364,1.641,0.364,2.674c0,0.213,0,0.456-0.03,0.972H547.679z M554.149,168.526 c-0.607-1.914-1.641-2.825-3.221-2.825c-1.641,0-2.795,1.033-3.25,2.825H554.149z">
                    </path>
                    <path class="st9"
                        d="M563.412,163.088v0.851c1.246-0.942,2.218-1.307,3.615-1.307c3.95,0,7.079,3.189,7.079,7.2 c0,3.979-3.129,7.17-7.079,7.17c-1.397,0-2.369-0.365-3.615-1.307v7.96h-3.463v-20.567H563.412z M563.382,169.832 c0,2.431,1.458,4.04,3.646,4.04c2.097,0,3.585-1.701,3.585-4.04c0-2.4-1.488-4.071-3.646-4.071 C564.84,165.761,563.382,167.402,563.382,169.832z">
                    </path>
                    <path class="st9"
                        d="M589.931,169.802c0,4.04-3.129,7.2-7.139,7.2c-4.071,0-7.17-3.16-7.17-7.262 c0-4.01,3.159-7.108,7.261-7.108C586.802,162.632,589.931,165.822,589.931,169.802z M579.115,169.802 c0,2.399,1.489,4.07,3.677,4.07c2.156,0,3.646-1.671,3.646-4.07c0-2.431-1.489-4.041-3.737-4.041 C580.604,165.761,579.115,167.432,579.115,169.802z">
                    </path>
                    <path class="st9"
                        d="M598.798,167.159c-0.76-1.124-1.245-1.458-2.035-1.458c-0.851,0-1.397,0.425-1.397,1.094 c0,0.577,0.183,0.729,1.731,1.307l1.215,0.485c2.279,0.882,3.281,2.006,3.281,3.798c0,2.612-2.188,4.618-5.043,4.618 c-1.731,0-3.22-0.729-4.192-2.066c-0.426-0.577-0.668-1.063-1.063-2.126l2.825-1.124c0.851,1.701,1.397,2.187,2.461,2.187 c0.911,0,1.55-0.547,1.55-1.397c0-0.577-0.273-0.789-1.701-1.336l-1.367-0.517c-2.005-0.76-3.008-2.006-3.008-3.737 c0-2.431,2.035-4.253,4.739-4.253c2.127,0,3.555,0.972,4.709,3.189L598.798,167.159z">
                    </path>
                    <path class="st9"
                        d="M607.88,158.5c0,1.185-0.973,2.127-2.157,2.127c-1.215,0-2.188-0.942-2.188-2.157 c0-1.154,0.973-2.097,2.218-2.097C606.907,156.373,607.88,157.346,607.88,158.5z M607.424,176.546h-3.463v-13.458h3.463V176.546 z">
                    </path>
                    <path class="st9"
                        d="M614.288,172.201c0,1.003,0.151,1.307,0.668,1.307c0.304,0,0.82-0.091,1.61-0.304v3.251 c-0.881,0.243-1.428,0.334-2.005,0.334c-2.4,0-3.737-1.641-3.737-4.588v-5.984h-1.397v-3.129h1.397v-2.887l3.464-1.367v4.254 h2.065v3.129h-2.065V172.201z">
                    </path>
                    <path class="st9"
                        d="M631.998,169.802c0,4.04-3.129,7.2-7.139,7.2c-4.071,0-7.17-3.16-7.17-7.262 c0-4.01,3.159-7.108,7.261-7.108C628.869,162.632,631.998,165.822,631.998,169.802z M621.183,169.802 c0,2.399,1.489,4.07,3.677,4.07c2.156,0,3.646-1.671,3.646-4.07c0-2.431-1.489-4.041-3.737-4.041 C622.672,165.761,621.183,167.432,621.183,169.802z">
                    </path>
                    <path class="st9"
                        d="M637.828,163.969c0.851-0.729,1.55-0.973,2.644-0.973c0.334,0,0.76,0.03,1.275,0.092v3.099 c-0.547-0.03-0.941-0.062-1.245-0.062c-2.005,0-2.674,0.973-2.674,3.95v6.471h-3.463v-13.458h3.463V163.969z">
                    </path>
                    <path class="st9"
                        d="M642.474,163.088h3.768l3.646,8.598l3.797-8.598h3.737l-9.145,20.567h-3.676l3.433-7.747L642.474,163.088z">
                    </path>
                </g>
            </g>
            <g>
                <g>
                    <path class="st9"
                        d="M144.709,138.113h3.373l6.684,11.879l6.684-11.879h3.372v20.264h-3.585V145.1l-5.073,9.054h-2.795 l-5.074-9.054v13.276h-3.585V138.113z">
                    </path>
                    <path class="st9"
                        d="M178.396,158.376v-0.851c-1.245,0.941-2.218,1.307-3.615,1.307c-3.949,0-7.078-3.19-7.078-7.2 c0-3.98,3.129-7.17,7.078-7.17c1.397,0,2.37,0.364,3.615,1.307v-0.851h3.464v13.458H178.396z M171.196,151.632 c0,2.399,1.488,4.07,3.646,4.07c2.156,0,3.615-1.671,3.615-4.07c0-2.431-1.459-4.041-3.677-4.041 C172.685,147.591,171.196,149.262,171.196,151.632z">
                    </path>
                    <path class="st9"
                        d="M188.752,154.032c0,1.003,0.152,1.307,0.668,1.307c0.305,0,0.82-0.091,1.61-0.304v3.251 c-0.881,0.243-1.428,0.334-2.005,0.334c-2.4,0-3.736-1.641-3.736-4.588v-5.984h-1.397v-3.129h1.397v-2.887l3.463-1.367v4.254 h2.065v3.129h-2.065V154.032z">
                    </path>
                    <path class="st9"
                        d="M195.708,152.938c0.486,1.793,1.671,2.765,3.372,2.765c1.124,0,2.157-0.395,2.855-1.124 c0.152-0.121,0.365-0.455,0.699-0.941l2.916,1.215c-0.851,1.459-1.124,1.763-1.975,2.461c-1.245,0.973-2.825,1.52-4.496,1.52 c-3.919,0-6.927-3.13-6.927-7.2c0-4.011,3.008-7.17,6.805-7.17c2.947,0,5.438,1.914,6.319,4.83 c0.243,0.851,0.365,1.641,0.365,2.674c0,0.213,0,0.456-0.031,0.972H195.708z M202.179,150.356 c-0.607-1.914-1.641-2.825-3.221-2.825c-1.64,0-2.795,1.033-3.25,2.825H202.179z">
                    </path>
                    <path class="st9"
                        d="M211.441,145.799c0.851-0.729,1.55-0.973,2.644-0.973c0.334,0,0.759,0.03,1.275,0.092v3.099 c-0.547-0.03-0.941-0.062-1.245-0.062c-2.006,0-2.674,0.973-2.674,3.95v6.471h-3.463v-13.458h3.463V145.799z">
                    </path>
                    <path class="st9"
                        d="M221.01,140.33c0,1.185-0.973,2.127-2.157,2.127c-1.215,0-2.188-0.942-2.188-2.157 c0-1.154,0.973-2.097,2.218-2.097C220.037,138.203,221.01,139.176,221.01,140.33z M220.554,158.376h-3.463v-13.458h3.463 V158.376z">
                    </path>
                    <path class="st9"
                        d="M233.646,158.376v-0.851c-1.245,0.941-2.218,1.307-3.615,1.307c-3.949,0-7.078-3.19-7.078-7.2 c0-3.98,3.129-7.17,7.078-7.17c1.397,0,2.37,0.364,3.615,1.307v-0.851h3.464v13.458H233.646z M226.446,151.632 c0,2.399,1.488,4.07,3.646,4.07c2.156,0,3.615-1.671,3.615-4.07c0-2.431-1.459-4.041-3.677-4.041 C227.935,147.591,226.446,149.262,226.446,151.632z">
                    </path>
                    <path class="st9" d="M240.356,158.376v-20.264h3.464v20.264H240.356z"></path>
                </g>
            </g>
        </g>
    </g>
</svg>