<svg xmlns="http://www.w3.org/2000/svg" width="800" height="300" viewBox="0 0 800 300">
    <title>8_pac_pipeline</title>
    <g id="diagrams">
        <g>
            <g>
                <rect x="437.2987" y="116.8993" width="191.4066" height="107" stroke-width="5" stroke="#023550" stroke-linecap="round" stroke-linejoin="round" fill="#fff"></rect>
                <g>
                    <path d="M455.5479,159.2121h-3.0342V142.0626h3.9336c2.16,0,3.4453.3858,4.5,1.337a5.3353,5.3353,0,0,1,1.6963,3.9853,5.39,5.39,0,0,1-1.6963,4.0108c-1.0547.9511-2.34,1.3369-4.5,1.3369h-.8994Zm1.1054-9.2305a3.0109,3.0109,0,0,0,2.2881-.6426,2.9831,2.9831,0,0,0,.0254-3.8564,3.1166,3.1166,0,0,0-2.3135-.6426h-1.1054v5.1416Z" fill="#023550"></path>
                    <path d="M467.501,143.94a1.8392,1.8392,0,1,1-1.8-1.8A1.8111,1.8111,0,0,1,467.501,143.94Zm-.3858,15.2725h-2.9316v-11.39h2.9316Z" fill="#023550"></path>
                    <path d="M472.7969,147.8224v.72a4.591,4.591,0,0,1,3.06-1.1054,6.0812,6.0812,0,0,1,0,12.1611,4.5906,4.5906,0,0,1-3.06-1.1055v6.7364h-2.9317V147.8224Zm-.0264,5.707c0,2.0577,1.2344,3.42,3.0859,3.42a3.4549,3.4549,0,0,0-.0517-6.8643C474.0049,150.0851,472.7705,151.4728,472.7705,153.5294Z" fill="#023550"></path>
                    <path d="M486.1377,154.61a2.8266,2.8266,0,0,0,2.8535,2.34,3.3152,3.3152,0,0,0,2.417-.9512,5.0616,5.0616,0,0,0,.5908-.7969l2.4688,1.0283a5.8738,5.8738,0,0,1-1.6709,2.083,6.1821,6.1821,0,0,1-3.8057,1.2852,6.087,6.087,0,0,1-.1025-12.1611,5.5622,5.5622,0,0,1,5.3476,4.0879,7.7527,7.7527,0,0,1,.3086,2.2627c0,.18,0,.3857-.0254.8222Zm5.4756-2.1855c-.5137-1.6192-1.3877-2.3907-2.7246-2.3907a2.79,2.79,0,0,0-2.751,2.3907Z" fill="#023550"></path>
                    <path d="M496.5479,159.2121V142.0626h2.9306v17.1495Z" fill="#023550"></path>
                    <path d="M505.5459,143.94a1.8392,1.8392,0,1,1-1.8-1.8A1.811,1.811,0,0,1,505.5459,143.94Zm-.3857,15.2725h-2.9317v-11.39H505.16Z" fill="#023550"></path>
                    <path d="M510.8408,148.4132a3.7776,3.7776,0,0,1,2.6485-.9765,4.8834,4.8834,0,0,1,3.5224,1.5166c.8994.9511,1.26,2.16,1.26,4.14v6.1192H515.34v-5.9395c0-1.4141-.1543-2.1084-.5654-2.5713a1.9211,1.9211,0,0,0-1.5166-.6162,2.2938,2.2938,0,0,0-1.8769.7969,4.0726,4.0726,0,0,0-.54,2.6221v5.708h-2.9316v-11.39h2.9316Z" fill="#023550"></path>
                    <path d="M523.2822,154.61a2.8267,2.8267,0,0,0,2.8535,2.34,3.3152,3.3152,0,0,0,2.417-.9512,5.0665,5.0665,0,0,0,.5909-.7969l2.4687,1.0283a5.8727,5.8727,0,0,1-1.6709,2.083,6.1821,6.1821,0,0,1-3.8057,1.2852,6.087,6.087,0,0,1-.1025-12.1611,5.5623,5.5623,0,0,1,5.3477,4.0879,7.7561,7.7561,0,0,1,.3086,2.2627c0,.18,0,.3857-.0254.8222Zm5.4756-2.1855c-.5137-1.6192-1.3877-2.3907-2.7246-2.3907a2.79,2.79,0,0,0-2.751,2.3907Z" fill="#023550"></path>
                    <path d="M539.2969,151.9611v2.6748h-5.708v-2.6748Z" fill="#023550"></path>
                    <path d="M543.4863,159.2121V145.714l-2.16,1.2334-1.4395-2.4932,4.2168-2.3916h2.417v17.1495Z" fill="#023550"></path>
                </g>
                <g>
                    <rect x="450.7136" y="183.1147" width="50.5964" height="16.4357" fill="#023550"></rect>
                    <rect x="507.7038" y="183.1147" width="50.5964" height="16.4357" fill="#023550"></rect>
                    <rect x="564.6941" y="183.1147" width="50.5964" height="16.4357" fill="#023550"></rect>
                </g>
            </g>
            <g>
                <line x1="309.193" y1="170.3993" x2="388.1598" y2="170.3993" fill="none" stroke="#023550" stroke-linecap="round" stroke-linejoin="round" stroke-width="5"></line>
                <polygon points="289.776 170.399 317.137 181.579 310.645 170.399 317.137 159.222 289.776 170.399" fill="#023550"></polygon>
                <polygon points="407.576 170.399 380.216 181.579 386.708 170.399 380.216 159.222 407.576 170.399" fill="#023550"></polygon>
            </g>
            <g>
                <g>
                    <path d="M181.4445,130.0894v80.61c.2551,7.3568,17.7544,13.275,39.3048,13.275,21.54,0,39.05-5.9182,39.3048-13.275v-80.61c-.2755-7.3467-17.7749-13.2648-39.3048-13.2648C199.2092,116.8246,181.72,122.7427,181.4445,130.0894Z" fill="#4ad9d9" stroke="#023550" stroke-miterlimit="10" stroke-width="5"></path>
                    <path d="M181.44,130.26c0,7.42,17.5974,13.4349,39.3048,13.4349s39.3048-6.015,39.3048-13.4349" fill="#4ad9d9" stroke="#023550" stroke-miterlimit="10" stroke-width="5"></path>
                    <path d="M181.44,157.0194c0,7.42,17.5974,13.4349,39.3048,13.4349s39.3048-6.015,39.3048-13.4349" fill="#4ad9d9" stroke="#023550" stroke-miterlimit="10" stroke-width="5"></path>
                    <path d="M181.44,183.7792c0,7.42,17.5974,13.435,39.3048,13.435s39.3048-6.0151,39.3048-13.435" fill="#4ad9d9" stroke="#023550" stroke-miterlimit="10" stroke-width="5"></path>
                </g>
                <g>
                    <circle cx="220.7469" cy="170.3993" r="25.3072" fill="#fff" stroke="#023550" stroke-linecap="round" stroke-linejoin="round" stroke-width="5"></circle>
                    <path d="M212.0583,187.7964a3.5131,3.5131,0,0,1-3.5066-3.4867V170.4a3.4943,3.4943,0,0,1,6.9884,0v7.4153L226.7265,170.4l-16.619-11.0248a3.4805,3.4805,0,0,1-.9754-4.8248,3.5248,3.5248,0,0,1,4.8523-.97l21.0023,13.9221a3.476,3.476,0,0,1,0,5.7948l-20.99,13.91A3.4875,3.4875,0,0,1,212.0583,187.7964Z" fill="#023550"></path>
                </g>
            </g>
            <g>
                <path d="M184.0786,84.6486V85.7c0,3.5967-2.269,5.9766-5.6631,5.9766a6.4293,6.4293,0,1,1-.0371-12.8574,5.9963,5.9963,0,0,1,3.5791,1.1435,9.3117,9.3117,0,0,1,1.291,1.125l-1.5493,1.4942a6.1751,6.1751,0,0,0-1.07-.9961,3.8908,3.8908,0,0,0-2.269-.7012,4.3643,4.3643,0,0,0,.0185,8.7266,3.3275,3.3275,0,0,0,3.0069-1.624,3.3953,3.3953,0,0,0,.4243-1.31h-3.45V84.6486Z" fill="#023550"></path>
                <path d="M193.9473,87.3048a4.3445,4.3445,0,1,1-4.28-4.3535A4.3036,4.3036,0,0,1,193.9473,87.3048Zm-6.5679,0a2.234,2.234,0,1,0,2.1772-2.4531A2.25,2.25,0,0,0,187.3794,87.3048Z" fill="#023550"></path>
                <path d="M204.8115,82.6007a7.9635,7.9635,0,0,0-1.07-1.0146,3.7927,3.7927,0,0,0-2.25-.7012,4.3643,4.3643,0,0,0-.0185,8.7266,3.9284,3.9284,0,0,0,2.38-.794,7.3968,7.3968,0,0,0,1.0146-.94l1.55,1.4756a6.2947,6.2947,0,0,1-4.9258,2.3242,6.4291,6.4291,0,1,1,.0186-12.8574,6.3566,6.3566,0,0,1,4.8515,2.2871Z" fill="#023550"></path>
                <path d="M210.8428,79.0958c4.0957,0,6.7153,2.3985,6.7153,6.1436,0,3.7627-2.6016,6.1611-6.7153,6.1611h-2.8223V79.0958Zm-.6455,10.2754h.7011c2.7671,0,4.4644-1.5683,4.4644-4.1318,0-2.5459-1.7158-4.1143-4.4644-4.1143h-.7011Z" fill="#023550"></path>
                <path d="M229.3623,82.3244c-.7378-1.1621-1.1621-1.4756-1.9922-1.4756a1.58,1.58,0,0,0-1.7158,1.5488c0,.5908.48,1.0518,1.439,1.4209l1.1621.4424c2.0664.7939,3.0258,1.8818,3.0258,3.4873a4.1778,4.1778,0,0,1-7.9145,1.6045,6.1178,6.1178,0,0,1-.4243-1.4024l2.1216-.5527a5.0013,5.0013,0,0,0,.3877,1.2354,1.8539,1.8539,0,0,0,1.6972.9961,1.8822,1.8822,0,0,0,1.9185-1.8624c0-.72-.4614-1.1445-1.771-1.6611l-1.1069-.4238c-1.8082-.7012-2.712-1.7891-2.712-3.3027a3.6642,3.6642,0,0,1,3.9112-3.56,3.8358,3.8358,0,0,1,2.8593,1.1621,5.38,5.38,0,0,1,.9039,1.2353Z" fill="#023550"></path>
                <path d="M234.6187,88.0988a2.0289,2.0289,0,0,0,2.0478,1.6787,2.3791,2.3791,0,0,0,1.7339-.6826,3.7345,3.7345,0,0,0,.4243-.5723l1.771.7383a4.2215,4.2215,0,0,1-1.1992,1.4941,4.4335,4.4335,0,0,1-2.73.9219,4.3675,4.3675,0,0,1-.0737-8.7256,3.9915,3.9915,0,0,1,3.8369,2.9336,5.5781,5.5781,0,0,1,.2212,1.6231c0,.1289,0,.2763-.0181.5908Zm3.9292-1.5684c-.3687-1.1621-.9961-1.7158-1.9551-1.7158a2.0017,2.0017,0,0,0-1.9741,1.7158Z" fill="#023550"></path>
                <path d="M244.1733,83.7628a2.1788,2.1788,0,0,1,1.605-.59,7.045,7.045,0,0,1,.7749.0547V85.11c-.332-.0185-.5718-.0361-.7563-.0361-1.2173,0-1.6236.59-1.6236,2.3974v3.93H242.07V83.2277h2.103Z" fill="#023550"></path>
                <path d="M251.46,88.3751l2.1767-5.1474h2.2876l-3.542,8.1728h-1.8447l-3.542-8.1728h2.2876Z" fill="#023550"></path>
                <path d="M258.063,88.0988a2.0289,2.0289,0,0,0,2.0478,1.6787,2.3789,2.3789,0,0,0,1.7339-.6826,3.7345,3.7345,0,0,0,.4243-.5723l1.771.7383a4.2215,4.2215,0,0,1-1.1992,1.4941,4.4332,4.4332,0,0,1-2.73.9219,4.3675,4.3675,0,0,1-.0737-8.7256,3.9913,3.9913,0,0,1,3.8369,2.9336,5.5747,5.5747,0,0,1,.2212,1.6231c0,.1289,0,.2763-.0181.5908Zm3.9292-1.5684c-.3687-1.1621-.9961-1.7158-1.9551-1.7158A2.0017,2.0017,0,0,0,258.063,86.53Z" fill="#023550"></path>
                <path d="M267.6177,83.7628a2.1786,2.1786,0,0,1,1.605-.59,7.045,7.045,0,0,1,.7749.0547V85.11c-.3321-.0185-.5718-.0361-.7564-.0361-1.2173,0-1.6235.59-1.6235,2.3974v3.93h-2.1031V83.2277h2.1031Z" fill="#023550"></path>
            </g>
        </g>
    </g>
</svg>
