<svg xmlns="http://www.w3.org/2000/svg" width="800" height="300" viewBox="0 0 800 300">
    <title>7_pac_SCM</title>
    <g id="diagrams">
        <g>
            <g>
                <path
                    d="M238.099,128.1993v80.61c.2551,7.3568,17.7545,13.275,39.3048,13.275,21.54,0,39.05-5.9182,39.3048-13.275v-80.61c-.2754-7.3467-17.7749-13.2648-39.3048-13.2648C255.8637,114.9345,238.3745,120.8526,238.099,128.1993Z"
                    fill="#fff" stroke="#023550" stroke-miterlimit="10" stroke-width="5"></path>
                <path d="M238.0942,128.3694c0,7.42,17.5974,13.4349,39.3049,13.4349s39.3048-6.015,39.3048-13.4349"
                    fill="#fff" stroke="#023550" stroke-miterlimit="10" stroke-width="5"></path>
                <path d="M238.0942,155.1293c0,7.42,17.5974,13.4349,39.3049,13.4349s39.3048-6.015,39.3048-13.4349"
                    fill="#fff" stroke="#023550" stroke-miterlimit="10" stroke-width="5"></path>
                <path d="M238.0942,181.8891c0,7.42,17.5974,13.435,39.3049,13.435s39.3048-6.0151,39.3048-13.435"
                    fill="#fff" stroke="#023550" stroke-miterlimit="10" stroke-width="5"></path>
            </g>
            <g>
                <g>
                    <path
                        d="M493.958,128.1993v80.61c.2551,7.3568,17.7545,13.275,39.3049,13.275,21.54,0,39.05-5.9182,39.3047-13.275v-80.61c-.2754-7.3467-17.7749-13.2648-39.3047-13.2648C511.7227,114.9345,494.2336,120.8526,493.958,128.1993Z"
                        fill="#4ad9d9" stroke="#023550" stroke-miterlimit="10" stroke-width="5"></path>
                    <path d="M493.9533,128.3694c0,7.42,17.5973,13.4349,39.3048,13.4349s39.3048-6.015,39.3048-13.4349"
                        fill="#4ad9d9" stroke="#023550" stroke-miterlimit="10" stroke-width="5"></path>
                    <path d="M493.9533,155.1293c0,7.42,17.5973,13.4349,39.3048,13.4349s39.3048-6.015,39.3048-13.4349"
                        fill="#4ad9d9" stroke="#023550" stroke-miterlimit="10" stroke-width="5"></path>
                    <path d="M493.9533,181.8891c0,7.42,17.5973,13.435,39.3048,13.435s39.3048-6.0151,39.3048-13.435"
                        fill="#4ad9d9" stroke="#023550" stroke-miterlimit="10" stroke-width="5"></path>
                </g>
                <g>
                    <circle cx="533.2605" cy="168.5092" r="25.3072" fill="#fff" stroke="#023550" stroke-linecap="round"
                        stroke-linejoin="round" stroke-width="5"></circle>
                    <path
                        d="M524.5719,185.9063a3.5133,3.5133,0,0,1-3.5066-3.4867V168.51a3.4943,3.4943,0,0,1,6.9884,0v7.4153L539.24,168.51,522.621,157.4849a3.4807,3.4807,0,0,1-.9754-4.8249,3.525,3.525,0,0,1,4.8524-.97L547.5,165.6123a3.476,3.476,0,0,1,0,5.7948l-20.99,13.91A3.4872,3.4872,0,0,1,524.5719,185.9063Z"
                        fill="#023550"></path>
                </g>
            </g>
            <g>
                <line x1="365.8475" y1="168.5642" x2="444.8143" y2="168.5642" fill="none" stroke="#023550"
                    stroke-linecap="round" stroke-linejoin="round" stroke-width="5"></line>
                <polygon points="346.431 168.564 373.791 179.744 367.299 168.564 373.791 157.387 346.431 168.564"
                    fill="#023550"></polygon>
                <polygon points="464.231 168.564 436.87 179.744 443.363 168.564 436.87 157.387 464.231 168.564"
                    fill="#023550"></polygon>
            </g>
            <g>
                <path
                    d="M224.26,84.2148c-.7378-1.1621-1.1622-1.4755-1.9922-1.4755a1.58,1.58,0,0,0-1.7159,1.5488c0,.5908.48,1.0517,1.439,1.4209l1.1621.4424c2.0664.7939,3.0259,1.8818,3.0259,3.4873a4.1779,4.1779,0,0,1-7.9146,1.6045,6.1178,6.1178,0,0,1-.4243-1.4024l2.1216-.5527a4.9976,4.9976,0,0,0,.3877,1.2353,1.854,1.854,0,0,0,1.6973.9961,1.8821,1.8821,0,0,0,1.9184-1.8623c0-.72-.4614-1.1445-1.771-1.6611l-1.1069-.4238c-1.8081-.7012-2.7119-1.7891-2.7119-3.3028a3.6641,3.6641,0,0,1,3.9111-3.5595,3.836,3.836,0,0,1,2.8594,1.1621,5.3783,5.3783,0,0,1,.9038,1.2353Z"
                    fill="#023550"></path>
                <path
                    d="M237.1729,84.4912a7.9689,7.9689,0,0,0-1.07-1.0146,3.7926,3.7926,0,0,0-2.25-.7012,4.3643,4.3643,0,0,0-.0186,8.7266,3.9284,3.9284,0,0,0,2.38-.794,7.3968,7.3968,0,0,0,1.0146-.94l1.55,1.4756a6.2949,6.2949,0,0,1-4.9257,2.3242,6.4291,6.4291,0,1,1,.0185-12.8574,6.3568,6.3568,0,0,1,4.8516,2.2871Z"
                    fill="#023550"></path>
                <path
                    d="M240.4922,80.9863H242.54l4.0585,7.2129,4.0586-7.2129h2.0479V93.291h-2.1768V85.23l-3.081,5.4971H245.75L242.6689,85.23V93.291h-2.1767Z"
                    fill="#023550"></path>
                <path
                    d="M268.18,93.291h-2.4722l-2.6011-4.667c-.3505.0186-.498.0186-.7563.0186h-.6455V93.291h-2.1768V80.9863H262.35a4.8943,4.8943,0,0,1,3.4316.959,3.8026,3.8026,0,0,1,1.31,2.9151,3.6154,3.6154,0,0,1-1.8447,3.21Zm-5.6821-6.623c1.6792,0,2.4536-.59,2.4536-1.8448a1.8015,1.8015,0,0,0-.5718-1.3652,2.6533,2.6533,0,0,0-1.8818-.48h-.793v3.69Z"
                    fill="#023550"></path>
                <path
                    d="M270.8721,89.9893A2.0289,2.0289,0,0,0,272.92,91.668a2.38,2.38,0,0,0,1.7339-.6826,3.74,3.74,0,0,0,.4243-.5723l1.771.7383a4.2224,4.2224,0,0,1-1.1992,1.4941,4.4332,4.4332,0,0,1-2.73.9219,4.3675,4.3675,0,0,1-.0737-8.7256,3.9914,3.9914,0,0,1,3.8369,2.9336,5.5745,5.5745,0,0,1,.2212,1.623c0,.1289,0,.2764-.0181.5909Zm3.9292-1.5684c-.3687-1.1621-.9961-1.7158-1.9551-1.7158a2.0016,2.0016,0,0,0-1.9741,1.7158Z"
                    fill="#023550"></path>
                <path
                    d="M280.4268,85.1182v.5166a3.2973,3.2973,0,0,1,2.1953-.793,4.3633,4.3633,0,0,1,0,8.7256,3.2922,3.2922,0,0,1-2.1953-.793v4.833h-2.1031V85.1182Zm-.0181,4.0957a2.2113,2.2113,0,0,0,2.2134,2.4541,2.4793,2.4793,0,0,0-.0367-4.9258A2.22,2.22,0,0,0,280.4087,89.2139Z"
                    fill="#023550"></path>
                <path
                    d="M296.5308,89.1953a4.3443,4.3443,0,1,1-4.28-4.3535A4.3032,4.3032,0,0,1,296.5308,89.1953Zm-6.5674,0a2.234,2.234,0,1,0,2.1772-2.4531A2.25,2.25,0,0,0,289.9634,89.1953Z"
                    fill="#023550"></path>
                <path
                    d="M301.917,87.5908c-.4614-.6826-.7564-.8857-1.2363-.8857-.5166,0-.8487.2588-.8487.664,0,.3506.1109.4424,1.0518.793l.7378.2959c1.3838.5342,1.9922,1.2168,1.9922,2.3057a2.8906,2.8906,0,0,1-3.062,2.8037,3.055,3.055,0,0,1-2.5459-1.2539,4.6162,4.6162,0,0,1-.6455-1.292l1.7153-.6817c.5166,1.0323.8486,1.3282,1.4946,1.3282a.85.85,0,0,0,.94-.8487c0-.35-.166-.48-1.0327-.8125l-.83-.3134a2.3808,2.3808,0,0,1-1.8266-2.2686,2.6792,2.6792,0,0,1,2.8779-2.583,3.0137,3.0137,0,0,1,2.8594,1.9375Z"
                    fill="#023550"></path>
                <path
                    d="M307.4312,82.333a1.32,1.32,0,1,1-1.2911-1.291A1.2987,1.2987,0,0,1,307.4312,82.333Zm-.2769,10.958h-2.103V85.1182h2.103Z"
                    fill="#023550"></path>
                <path
                    d="M311.3232,90.6533c0,.6084.0923.793.4063.793a4.3488,4.3488,0,0,0,.9775-.1846v1.9737a4.37,4.37,0,0,1-1.2177.2031c-1.4571,0-2.2691-.9961-2.2691-2.7852V87.0186h-.8486v-1.9h.8486v-1.752l2.103-.83v2.5821h1.2544v1.9h-1.2544Z"
                    fill="#023550"></path>
                <path
                    d="M322.0776,89.1953a4.3442,4.3442,0,1,1-4.28-4.3535A4.3032,4.3032,0,0,1,322.0776,89.1953Zm-6.5673,0a2.2339,2.2339,0,1,0,2.1772-2.4531A2.25,2.25,0,0,0,315.51,89.1953Z"
                    fill="#023550"></path>
                <path
                    d="M325.6187,85.6533a2.1782,2.1782,0,0,1,1.6049-.59,7.017,7.017,0,0,1,.7749.0547V87c-.332-.0186-.5717-.0361-.7563-.0361-1.2173,0-1.6235.59-1.6235,2.3974v3.93h-2.1031V85.1182h2.1031Z"
                    fill="#023550"></path>
                <path d="M328.44,85.1182h2.2876l2.2139,5.2216,2.3057-5.2216h2.269l-5.5527,12.4892h-2.232l2.0845-4.7041Z"
                    fill="#023550"></path>
            </g>
            <g>
                <path
                    d="M496.5918,86.5391v1.0517c0,3.5967-2.2686,5.9766-5.6631,5.9766a6.4293,6.4293,0,1,1-.0371-12.8574,5.9963,5.9963,0,0,1,3.5791,1.1435,9.2874,9.2874,0,0,1,1.291,1.125l-1.5488,1.4942a6.1947,6.1947,0,0,0-1.07-.9961,3.8925,3.8925,0,0,0-2.27-.7012,4.3643,4.3643,0,0,0,.0186,8.7266,3.3271,3.3271,0,0,0,3.0068-1.6241,3.39,3.39,0,0,0,.4248-1.3095h-3.45V86.5391Z"
                    fill="#023550"></path>
                <path
                    d="M506.4609,89.1953a4.3447,4.3447,0,1,1-4.28-4.3535A4.3037,4.3037,0,0,1,506.4609,89.1953Zm-6.5683,0a2.234,2.234,0,1,0,2.1777-2.4531A2.25,2.25,0,0,0,499.8926,89.1953Z"
                    fill="#023550"></path>
                <path
                    d="M517.3252,84.4912a7.994,7.994,0,0,0-1.07-1.0146,3.7945,3.7945,0,0,0-2.251-.7012,4.3643,4.3643,0,0,0-.0185,8.7266,3.9279,3.9279,0,0,0,2.38-.794,7.3571,7.3571,0,0,0,1.0147-.94l1.55,1.4756a6.2937,6.2937,0,0,1-4.9258,2.3242,6.4291,6.4291,0,1,1,.0186-12.8574,6.3559,6.3559,0,0,1,4.8515,2.2871Z"
                    fill="#023550"></path>
                <path
                    d="M523.3564,80.9863c4.0957,0,6.7149,2.3985,6.7149,6.1436,0,3.7627-2.6016,6.1611-6.7149,6.1611h-2.8222V80.9863Zm-.6455,10.2754h.7012c2.7666,0,4.4639-1.5683,4.4639-4.1318,0-2.5459-1.7158-4.1143-4.4639-4.1143h-.7012Z"
                    fill="#023550"></path>
                <path
                    d="M541.876,84.2148c-.7383-1.1621-1.1621-1.4755-1.9922-1.4755a1.58,1.58,0,0,0-1.7158,1.5488c0,.5908.48,1.0517,1.4384,1.4209l1.1622.4424c2.0664.7939,3.0263,1.8818,3.0263,3.4873a4.1781,4.1781,0,0,1-7.915,1.6045,6.1014,6.1014,0,0,1-.4238-1.4024l2.121-.5527a5.0483,5.0483,0,0,0,.3877,1.2353,1.854,1.854,0,0,0,1.6973.9961,1.8823,1.8823,0,0,0,1.919-1.8623c0-.72-.462-1.1445-1.7715-1.6611l-1.1065-.4238c-1.8086-.7012-2.7119-1.7891-2.7119-3.3028a3.6641,3.6641,0,0,1,3.9111-3.5595,3.8366,3.8366,0,0,1,2.8594,1.1621,5.3809,5.3809,0,0,1,.9033,1.2353Z"
                    fill="#023550"></path>
                <path
                    d="M547.1318,89.9893A2.0291,2.0291,0,0,0,549.18,91.668a2.3815,2.3815,0,0,0,1.7344-.6826,3.7838,3.7838,0,0,0,.4238-.5723l1.7715.7383a4.2224,4.2224,0,0,1-1.1992,1.4941,4.4362,4.4362,0,0,1-2.7305.9219,4.3674,4.3674,0,0,1-.0733-8.7256,3.9916,3.9916,0,0,1,3.837,2.9336,5.5783,5.5783,0,0,1,.2207,1.623c0,.1289,0,.2764-.0176.5909Zm3.93-1.5684c-.3691-1.1621-.9961-1.7158-1.9551-1.7158a2.0022,2.0022,0,0,0-1.9746,1.7158Z"
                    fill="#023550"></path>
                <path
                    d="M556.6865,85.6533a2.1794,2.1794,0,0,1,1.6055-.59,7.0124,7.0124,0,0,1,.7744.0547V87c-.332-.0186-.5713-.0361-.7559-.0361-1.2177,0-1.624.59-1.624,2.3974v3.93H554.584V85.1182h2.1025Z"
                    fill="#023550"></path>
                <path d="M563.9727,90.2656l2.1767-5.1474h2.2881l-3.542,8.1728h-1.8447l-3.542-8.1728h2.2871Z"
                    fill="#023550"></path>
                <path
                    d="M570.5762,89.9893a2.0289,2.0289,0,0,0,2.0478,1.6787,2.3815,2.3815,0,0,0,1.7344-.6826,3.7838,3.7838,0,0,0,.4238-.5723l1.7715.7383a4.2224,4.2224,0,0,1-1.1992,1.4941,4.4357,4.4357,0,0,1-2.7305.9219,4.3674,4.3674,0,0,1-.0732-8.7256,3.9915,3.9915,0,0,1,3.8369,2.9336,5.5749,5.5749,0,0,1,.2207,1.623c0,.1289,0,.2764-.0176.5909Zm3.93-1.5684c-.3692-1.1621-.9961-1.7158-1.9551-1.7158a2.0021,2.0021,0,0,0-1.9746,1.7158Z"
                    fill="#023550"></path>
                <path
                    d="M580.1309,85.6533a2.1793,2.1793,0,0,1,1.6054-.59,7.0092,7.0092,0,0,1,.7744.0547V87c-.332-.0186-.5712-.0361-.7558-.0361-1.2178,0-1.624.59-1.624,2.3974v3.93h-2.1026V85.1182h2.1026Z"
                    fill="#023550"></path>
            </g>
        </g>
    </g>
</svg>