<svg version="1.1" xmlns="http://www.w3.org/2000/svg" xmlns:xlink="http://www.w3.org/1999/xlink" x="0px" y="0px"
    viewBox="0 0 800 300" style="enable-background:new 0 0 800 300;" xml:space="preserve">
    <style type="text/css">
        .st0 {
            fill: #757575;
        }

        .st1 {
            fill: none;
            stroke: #B2B2B2;
            stroke-width: 4;
            stroke-linecap: round;
            stroke-linejoin: round;
            stroke-miterlimit: 10;
        }

        .st2 {
            display: none;
        }

        .st3 {
            display: inline;
            fill: none;
            stroke: #757575;
            stroke-miterlimit: 10;
        }

        .st4 {
            display: inline;
            fill: #757575;
        }

        .st5 {
            fill: #FFFFFF;
            stroke: #023550;
            stroke-width: 5;
            stroke-miterlimit: 10;
        }

        .st6 {
            fill: none;
            stroke: #023550;
            stroke-width: 5;
            stroke-miterlimit: 10;
        }

        .st7 {
            fill: #4AD9D9;
            stroke: #023550;
            stroke-width: 5;
            stroke-miterlimit: 10;
        }

        .st8 {
            fill: #1ABBBC;
            stroke: #023550;
            stroke-width: 5;
            stroke-linecap: round;
            stroke-miterlimit: 10;
        }

        .st9 {
            fill: #023550;
        }

        .st10 {
            fill: #FFFFFF;
            stroke: #023550;
            stroke-width: 5;
            stroke-linejoin: round;
            stroke-miterlimit: 10;
        }

        .st11 {
            fill: #FFFFFF;
        }

        .st12 {
            fill: none;
            stroke: #023550;
            stroke-width: 5;
            stroke-linecap: round;
            stroke-linejoin: round;
        }

        .st13 {
            fill: #FFFFFF;
            stroke: #023550;
            stroke-width: 5;
            stroke-linecap: round;
            stroke-linejoin: round;
            stroke-miterlimit: 10;
        }

        .st14 {
            fill: none;
            stroke: #023550;
            stroke-width: 5;
            stroke-linecap: round;
            stroke-linejoin: round;
            stroke-miterlimit: 10;
        }

        .st15 {
            fill: #4AD9D9;
            stroke: #023550;
            stroke-width: 5;
            stroke-linecap: round;
            stroke-linejoin: round;
            stroke-miterlimit: 10;
        }
    </style>
    <g id="Layer_1"> </g>
    <g id="grids_and_guides" class="st2">
        <rect x="20" y="20" class="st3" width="760" height="260"></rect>
    </g>
    <g id="diagrams">
        <g>
            <path class="st13"
                d="M482.237,248.109H317.763c-11.046,0-20-8.954-20-20V71.891c0-11.046,8.954-20,20-20h164.475 c11.046,0,20,8.954,20,20v156.217C502.237,239.154,493.283,248.109,482.237,248.109z">
            </path>
            <path class="st15"
                d="M469.537,159.429H330.463c-4.418,0-8-3.582-8-8v-38.537c0-4.418,3.582-8,8-8h139.073c4.418,0,8,3.582,8,8 v38.537C477.537,155.848,473.955,159.429,469.537,159.429z">
            </path>
            <path class="st15"
                d="M469.537,227.611H330.463c-4.418,0-8-3.582-8-8v-38.537c0-4.418,3.582-8,8-8h139.073c4.418,0,8,3.582,8,8 v38.537C477.537,224.029,473.955,227.611,469.537,227.611z">
            </path>
            <g>
                <path class="st9"
                    d="M379.181,74.077c-0.773-1.218-1.217-1.546-2.086-1.546c-1.043,0-1.796,0.676-1.796,1.623 c0,0.618,0.502,1.101,1.506,1.487l1.217,0.464c2.164,0.83,3.168,1.97,3.168,3.65c0,2.318-1.913,4.115-4.385,4.115 c-1.719,0-3.207-0.908-3.902-2.435c-0.174-0.386-0.174-0.386-0.444-1.468l2.222-0.58c0.27,1.024,0.27,1.024,0.405,1.295 c0.367,0.676,1.005,1.043,1.777,1.043c1.121,0,2.009-0.869,2.009-1.951c0-0.753-0.483-1.197-1.854-1.738l-1.159-0.444 c-1.893-0.734-2.84-1.874-2.84-3.458c0-2.125,1.758-3.729,4.095-3.729c1.198,0,2.203,0.406,2.995,1.217 c0.328,0.329,0.444,0.483,0.946,1.295L379.181,74.077z">
                </path>
                <path class="st9"
                    d="M385.21,80.818c0,0.638,0.097,0.831,0.425,0.831c0.193,0,0.521-0.058,1.024-0.193v2.067 c-0.56,0.154-0.908,0.212-1.275,0.212c-1.526,0-2.376-1.043-2.376-2.917v-3.806h-0.889v-1.989h0.889v-1.835l2.202-0.869v2.704 h1.313v1.989h-1.313V80.818z">
                </path>
                <path class="st9"
                    d="M394.174,83.581V83.04c-0.792,0.599-1.41,0.831-2.299,0.831c-2.511,0-4.501-2.028-4.501-4.578 c0-2.531,1.99-4.56,4.501-4.56c0.889,0,1.507,0.232,2.299,0.831v-0.541h2.202v8.558H394.174z M389.596,79.293 c0,1.525,0.946,2.588,2.318,2.588s2.299-1.062,2.299-2.588c0-1.546-0.927-2.569-2.337-2.569 C390.542,76.724,389.596,77.786,389.596,79.293z">
                </path>
                <path class="st9"
                    d="M404.646,83.04c-0.889,0.638-1.448,0.831-2.337,0.831c-2.473,0-4.463-2.048-4.463-4.578 c0-2.531,1.99-4.56,4.463-4.56c0.889,0,1.448,0.193,2.337,0.831v-0.541h2.202v8.731c0,2.763-1.854,4.617-4.616,4.617 c-1.159,0-2.261-0.367-3.111-1.043c-0.328-0.252-0.425-0.349-1.12-1.159l1.429-1.43l0.348,0.387 c0.831,0.966,1.392,1.255,2.435,1.255c1.545,0,2.434-0.966,2.434-2.627V83.04z M400.067,79.293c0,1.525,0.946,2.588,2.318,2.588 c1.353,0,2.279-1.062,2.279-2.588c0-1.546-0.927-2.569-2.318-2.569C401.014,76.724,400.067,77.786,400.067,79.293z">
                </path>
                <path class="st9"
                    d="M410.616,80.123c0.31,1.14,1.062,1.758,2.145,1.758c0.715,0,1.371-0.251,1.815-0.715 c0.097-0.077,0.232-0.289,0.444-0.599l1.854,0.772c-0.541,0.928-0.715,1.121-1.255,1.565c-0.793,0.618-1.797,0.966-2.859,0.966 c-2.492,0-4.404-1.99-4.404-4.578c0-2.551,1.912-4.56,4.327-4.56c1.874,0,3.458,1.217,4.018,3.071 c0.155,0.541,0.232,1.044,0.232,1.7c0,0.136,0,0.29-0.02,0.618H410.616z M414.731,78.481c-0.387-1.217-1.044-1.797-2.048-1.797 c-1.043,0-1.777,0.657-2.067,1.797H414.731z">
                </path>
                <path class="st9"
                    d="M424.488,83.581V73.439l-1.622,0.927l-1.082-1.873l3.168-1.797h1.815v12.885H424.488z"></path>
            </g>
            <g>
                <g>
                    <path class="st9"
                        d="M387.132,136.216c0,1.623-0.232,2.454-0.947,3.227c-0.599,0.676-1.545,1.062-2.569,1.062 c-1.217,0-2.202-0.483-3.419-1.7l1.43-1.661c0.811,0.869,1.372,1.197,1.99,1.197c0.869,0,1.236-0.618,1.236-2.125v-8.886h2.279 V136.216z">
                    </path>
                    <path class="st9"
                        d="M398.086,135.927c0,2.568-1.99,4.578-4.54,4.578c-2.589,0-4.559-2.01-4.559-4.617 c0-2.55,2.009-4.521,4.617-4.521C396.097,131.367,398.086,133.395,398.086,135.927z M391.209,135.927 c0,1.525,0.946,2.588,2.337,2.588c1.372,0,2.318-1.062,2.318-2.588c0-1.546-0.946-2.569-2.376-2.569 C392.156,133.357,391.209,134.42,391.209,135.927z">
                    </path>
                    <path class="st9"
                        d="M399.595,127.33h2.202v4.868c0.792-0.618,1.41-0.831,2.299-0.831c2.511,0,4.501,2.028,4.501,4.56 c0,2.55-1.99,4.578-4.501,4.578c-0.889,0-1.487-0.232-2.299-0.831v0.541h-2.202V127.33z M401.777,135.927 c0,1.525,0.927,2.588,2.279,2.588c1.372,0,2.318-1.062,2.318-2.588c0-1.526-0.946-2.569-2.356-2.569 C402.704,133.357,401.777,134.42,401.777,135.927z">
                    </path>
                    <path class="st9"
                        d="M416.171,140.215v-10.142L414.549,131l-1.082-1.873l3.168-1.797h1.815v12.885H416.171z"></path>
                </g>
            </g>
            <g>
                <g>
                    <path class="st9"
                        d="M385.51,204.956c0,1.623-0.232,2.454-0.947,3.227c-0.599,0.676-1.545,1.062-2.569,1.062 c-1.217,0-2.203-0.483-3.419-1.7l1.43-1.661c0.811,0.869,1.372,1.197,1.99,1.197c0.869,0,1.236-0.618,1.236-2.125v-8.886h2.279 V204.956z">
                    </path>
                    <path class="st9"
                        d="M396.464,204.667c0,2.568-1.99,4.578-4.54,4.578c-2.589,0-4.559-2.01-4.559-4.617 c0-2.55,2.009-4.521,4.617-4.521C394.474,200.107,396.464,202.136,396.464,204.667z M389.587,204.667 c0,1.525,0.946,2.588,2.337,2.588c1.372,0,2.318-1.062,2.318-2.588c0-1.546-0.946-2.569-2.376-2.569 C390.533,202.098,389.587,203.16,389.587,204.667z">
                    </path>
                    <path class="st9"
                        d="M397.972,196.07h2.202v4.868c0.792-0.618,1.41-0.831,2.298-0.831c2.512,0,4.501,2.028,4.501,4.56 c0,2.55-1.989,4.578-4.501,4.578c-0.889,0-1.487-0.232-2.298-0.831v0.541h-2.202V196.07z M400.155,204.667 c0,1.525,0.927,2.588,2.28,2.588c1.371,0,2.317-1.062,2.317-2.588c0-1.526-0.946-2.569-2.356-2.569 C401.082,202.098,400.155,203.16,400.155,204.667z">
                    </path>
                    <path class="st9"
                        d="M412.714,207.14l4.578-5.101c0.869-0.966,1.294-1.796,1.294-2.588c0-0.928-0.695-1.526-1.758-1.526 c-0.772,0-1.353,0.271-1.642,0.753c-0.193,0.329-0.271,0.541-0.503,1.314l-2.105-0.58c0.213-0.966,0.405-1.43,0.792-1.971 c0.772-1.081,2.009-1.661,3.516-1.661c2.338,0,3.96,1.526,3.96,3.729c0,1.217-0.482,2.376-1.371,3.381l-3.555,3.94h5.196v2.125 h-8.402V207.14z">
                    </path>
                </g>
            </g>
            <g>
                <g>
                    <path class="st9"
                        d="M548.866,157.736c0,1.623-0.231,2.453-0.946,3.227c-0.6,0.676-1.546,1.062-2.569,1.062 c-1.217,0-2.202-0.483-3.419-1.7l1.429-1.661c0.812,0.869,1.372,1.197,1.99,1.197c0.869,0,1.236-0.618,1.236-2.125v-8.886h2.279 V157.736z">
                    </path>
                    <path class="st9"
                        d="M559.82,157.447c0,2.568-1.989,4.578-4.539,4.578c-2.589,0-4.559-2.01-4.559-4.617 c0-2.55,2.009-4.521,4.616-4.521C557.831,152.888,559.82,154.916,559.82,157.447z M552.943,157.447 c0,1.525,0.947,2.588,2.338,2.588c1.371,0,2.318-1.062,2.318-2.588c0-1.546-0.947-2.569-2.376-2.569 C553.891,154.878,552.943,155.94,552.943,157.447z">
                    </path>
                    <path class="st9"
                        d="M561.329,148.851h2.202v4.868c0.793-0.618,1.41-0.831,2.299-0.831c2.512,0,4.501,2.028,4.501,4.56 c0,2.55-1.989,4.578-4.501,4.578c-0.889,0-1.487-0.232-2.299-0.831v0.541h-2.202V148.851z M563.513,157.447 c0,1.525,0.927,2.588,2.279,2.588c1.371,0,2.318-1.062,2.318-2.588c0-1.526-0.947-2.569-2.357-2.569 C564.439,154.878,563.513,155.94,563.513,157.447z">
                    </path>
                    <path class="st9"
                        d="M575.84,155.767c-0.483-0.715-0.792-0.928-1.295-0.928c-0.541,0-0.889,0.271-0.889,0.695 c0,0.367,0.116,0.464,1.102,0.831l0.772,0.309c1.449,0.561,2.086,1.275,2.086,2.415c0,1.661-1.391,2.937-3.206,2.937 c-1.102,0-2.048-0.464-2.666-1.313c-0.271-0.367-0.425-0.677-0.676-1.353l1.796-0.715c0.541,1.082,0.889,1.391,1.565,1.391 c0.579,0,0.984-0.348,0.984-0.889c0-0.367-0.174-0.502-1.081-0.85l-0.87-0.328c-1.274-0.483-1.912-1.275-1.912-2.376 c0-1.546,1.295-2.705,3.014-2.705c1.353,0,2.26,0.618,2.994,2.028L575.84,155.767z">
                    </path>
                    <path class="st9"
                        d="M589.788,156.095c-0.966-1.024-1.333-1.217-2.183-1.217c-1.41,0-2.357,1.023-2.357,2.569 c0,1.564,0.947,2.588,2.376,2.588c0.851,0,1.411-0.328,2.222-1.274l1.469,1.41c-1.198,1.333-2.261,1.854-3.709,1.854 c-2.589,0-4.578-1.99-4.578-4.578c0-2.569,1.989-4.56,4.578-4.56c1.41,0,2.453,0.503,3.65,1.777L589.788,156.095z">
                    </path>
                    <path class="st9"
                        d="M598.541,161.735v-0.541c-0.793,0.599-1.41,0.831-2.299,0.831c-2.512,0-4.501-2.028-4.501-4.578 c0-2.531,1.989-4.56,4.501-4.56c0.889,0,1.506,0.232,2.299,0.831v-0.541h2.202v8.558H598.541z M593.962,157.447 c0,1.525,0.947,2.588,2.318,2.588c1.372,0,2.299-1.062,2.299-2.588c0-1.546-0.927-2.569-2.337-2.569 C594.909,154.878,593.962,155.94,593.962,157.447z">
                    </path>
                    <path class="st9"
                        d="M604.994,153.622c0.677-0.541,1.198-0.734,1.99-0.734c0.985,0,1.989,0.425,2.646,1.14 c0.676,0.715,0.946,1.623,0.946,3.11v4.598h-2.202v-4.462c0-1.062-0.115-1.585-0.425-1.933c-0.271-0.309-0.657-0.463-1.14-0.463 c-0.599,0-1.12,0.212-1.41,0.599c-0.29,0.367-0.406,0.889-0.406,1.971v4.288h-2.202v-8.558h2.202V153.622z">
                    </path>
                    <path class="st9"
                        d="M619.271,153.738c0.541-0.464,0.985-0.618,1.681-0.618c0.213,0,0.483,0.019,0.812,0.058v1.971 c-0.348-0.02-0.599-0.039-0.792-0.039c-1.274,0-1.7,0.618-1.7,2.512v4.114h-2.202v-8.558h2.202V153.738z">
                    </path>
                    <path class="st9"
                        d="M628.449,161.291c-0.676,0.541-1.197,0.734-1.989,0.734c-0.985,0-1.99-0.425-2.646-1.14 c-0.677-0.715-0.947-1.643-0.947-3.11v-4.598h2.202v4.462c0,1.062,0.116,1.584,0.426,1.933c0.271,0.309,0.656,0.463,1.14,0.463 c0.599,0,1.12-0.212,1.41-0.599c0.29-0.348,0.405-0.908,0.405-1.989v-4.27h2.202v8.558h-2.202V161.291z">
                    </path>
                    <path class="st9"
                        d="M634.902,153.622c0.677-0.541,1.198-0.734,1.99-0.734c0.985,0,1.989,0.425,2.646,1.14 c0.676,0.715,0.946,1.623,0.946,3.11v4.598h-2.202v-4.462c0-1.062-0.115-1.585-0.425-1.933c-0.271-0.309-0.657-0.463-1.14-0.463 c-0.599,0-1.12,0.212-1.41,0.599c-0.29,0.367-0.406,0.889-0.406,1.971v4.288H632.7v-8.558h2.202V153.622z">
                    </path>
                    <path class="st9"
                        d="M545.582,173.445c0,0.753-0.618,1.353-1.371,1.353c-0.773,0-1.392-0.6-1.392-1.372 c0-0.734,0.618-1.333,1.411-1.333C544.964,172.093,545.582,172.711,545.582,173.445z M545.292,184.92h-2.202v-8.558h2.202 V184.92z">
                    </path>
                    <path class="st9"
                        d="M549.562,176.807c0.677-0.541,1.198-0.734,1.99-0.734c0.985,0,1.989,0.425,2.646,1.14 c0.676,0.715,0.946,1.623,0.946,3.11v4.598h-2.202v-4.462c0-1.062-0.116-1.585-0.425-1.933c-0.271-0.309-0.657-0.463-1.14-0.463 c-0.599,0-1.12,0.212-1.41,0.599c-0.29,0.367-0.406,0.889-0.406,1.971v4.288h-2.202v-8.558h2.202V176.807z">
                    </path>
                    <path class="st9"
                        d="M563.839,176.362v0.541c0.792-0.599,1.411-0.831,2.299-0.831c2.512,0,4.501,2.028,4.501,4.578 c0,2.531-1.989,4.56-4.501,4.56c-0.888,0-1.507-0.232-2.299-0.831v5.062h-2.202v-13.078H563.839z M563.82,180.65 c0,1.546,0.927,2.569,2.317,2.569c1.333,0,2.28-1.081,2.28-2.569c0-1.525-0.947-2.588-2.318-2.588 C564.747,178.062,563.82,179.105,563.82,180.65z">
                    </path>
                    <path class="st9"
                        d="M578.407,184.92v-0.541c-0.792,0.599-1.411,0.831-2.299,0.831c-2.512,0-4.501-2.028-4.501-4.578 c0-2.531,1.989-4.56,4.501-4.56c0.888,0,1.507,0.232,2.299,0.831v-0.541h2.202v8.558H578.407z M573.828,180.632 c0,1.525,0.947,2.588,2.318,2.588c1.372,0,2.299-1.062,2.299-2.588c0-1.546-0.927-2.569-2.337-2.569 C574.775,178.062,573.828,179.125,573.828,180.632z">
                    </path>
                    <path class="st9"
                        d="M584.86,176.923c0.541-0.464,0.985-0.618,1.681-0.618c0.213,0,0.483,0.019,0.812,0.058v1.971 c-0.348-0.02-0.599-0.039-0.792-0.039c-1.274,0-1.7,0.618-1.7,2.512v4.114h-2.202v-8.558h2.202V176.923z">
                    </path>
                    <path class="st9"
                        d="M594.733,184.92v-0.541c-0.792,0.599-1.411,0.831-2.299,0.831c-2.512,0-4.501-2.028-4.501-4.578 c0-2.531,1.989-4.56,4.501-4.56c0.888,0,1.507,0.232,2.299,0.831v-0.541h2.202v8.558H594.733z M590.154,180.632 c0,1.525,0.947,2.588,2.318,2.588c1.372,0,2.299-1.062,2.299-2.588c0-1.546-0.927-2.569-2.337-2.569 C591.102,178.062,590.154,179.125,590.154,180.632z">
                    </path>
                    <path class="st9" d="M599.004,184.92v-12.885h2.202v12.885H599.004z"></path>
                    <path class="st9" d="M603.293,184.92v-12.885h2.202v12.885H603.293z"></path>
                    <path class="st9"
                        d="M609.282,181.462c0.309,1.14,1.062,1.758,2.145,1.758c0.715,0,1.371-0.251,1.815-0.715 c0.097-0.077,0.231-0.289,0.444-0.599l1.854,0.772c-0.541,0.928-0.715,1.121-1.256,1.565c-0.792,0.618-1.796,0.966-2.858,0.966 c-2.492,0-4.404-1.99-4.404-4.578c0-2.551,1.912-4.56,4.327-4.56c1.873,0,3.457,1.217,4.018,3.071 c0.154,0.541,0.231,1.044,0.231,1.7c0,0.136,0,0.29-0.019,0.618H609.282z M613.396,179.82c-0.386-1.217-1.043-1.797-2.047-1.797 c-1.044,0-1.777,0.657-2.067,1.797H613.396z">
                    </path>
                    <path class="st9" d="M617.107,184.92v-12.885h2.202v12.885H617.107z"></path>
                    <path class="st9"
                        d="M624.102,183.818c0,0.754-0.618,1.353-1.372,1.353c-0.772,0-1.391-0.599-1.391-1.371 c0-0.734,0.618-1.333,1.41-1.333C623.483,182.467,624.102,183.085,624.102,183.818z">
                    </path>
                </g>
            </g>
            <polyline class="st14" points="477.537,133.677 526.529,133.677 526.529,202.322 477.537,202.322    ">
            </polyline>
        </g>
    </g>
</svg>